<svg xmlns="http://www.w3.org/2000/svg" id="Layer_2" viewBox="0 0 1168.47 34.53"><defs><style>      .cls-1 {        fill: #231f20;      }      .cls-2 {        fill: #fff;      }    </style></defs><g id="Layer_1-2" data-name="Layer_1"><g><path class="cls-2" d="M1154.33,10.68c-32.59-7.9-77.8-11.02-125.34-8.64-28.76,1.44-57.98,4.8-86.8,6.44-94.08,5.36-173.21-7.87-265.16-6.54-51.24.74-105.69,6.01-155.13,4.77-24.94-.63-48.24-2.91-74.31-2.21-21.59.58-44,3.19-65.74,4.04-38.06,1.49-71.57-2.48-108.97-2.04-29.36.34-60.18,3.39-89.91,4.29-58.07,1.76-114.73-4.39-171.98,5.16-2.9.48-5.93,1.05-7.89,1.92-6.24,2.77,3.63,4.96,12.22,5.5,151.81,9.43,324.7.22,481.33,5.92,40.21,1.46,80.39,3.9,123.7.91,31.82-2.2,64.63-7.28,95.17-7.18,34.91.12,60.45,6.98,92.82,9.26,38.77,2.72,84.5-1.28,126.4-1.25,28.65.02,55.41,1.93,83.95,2.07,38.75.19,79.71-2.89,120.16-5.95,8.19-.62,17.49-1.47,23.07-3.8,3.05-1.28,4.39-2.79,4.9-4.2,2.02-5.57-4.83-6.41-12.5-8.45"></path><path class="cls-1" d="M1154.66,9.48C1120.67,1.36,1085.14-.46,1050.3.09c-41.46.66-82.62,6.38-124.04,7.88-78.39,2.84-156.42-7.28-234.77-7.37-40.13-.05-80.17,2.99-120.26,4.39-19.72.69-39.45.93-59.17.14-19.59-.78-39.16-2.21-58.78-1.99-20.22.23-40.35,2.37-60.52,3.59s-40.19.95-60.3.15-38.96-1.83-58.47-1.64c-20.62.2-41.21,1.7-61.79,2.91-41.19,2.43-82.23.92-123.44,1.04-20.7.06-41.42.78-61.98,3.25-7.52.9-17.31.86-24.17,4.28-2.28,1.14-3.75,2.93-1.46,4.92,4.41,3.83,14.98,3.03,20.27,3.34,9.25.54,18.51,1.01,27.77,1.43,19.24.85,38.49,1.45,57.74,1.86,39.23.84,78.47.94,117.7.83,79.05-.23,158.11-1.42,237.15.41,39.22.91,78.43,3.51,117.66,3.35,41.3-.17,81.97-6.8,123.16-8.36,37.37-1.41,73.51,7.26,110.62,9.32,38.38,2.13,76.82-1.22,115.2-1.53,40.12-.33,80.13,2.88,120.26,1.6,20.9-.66,41.78-1.98,62.64-3.47,10.13-.72,20.27-1.43,30.4-2.27,7.05-.58,15.22-.89,21.65-4.14,3.03-1.53,6.28-4.82,4.68-8.54-1.88-4.37-9.56-5.02-13.39-6-1.56-.4-2.22,2.01-.66,2.41,3.69.95,9.74,1.24,10.73,5.26.61,2.52.45,2.9-1.8,4.31-.99.63-2.31,1.04-3.42,1.41-1.86.62-3.8,1.01-5.73,1.36-9.41,1.7-19.15,1.98-28.68,2.69-20.19,1.5-40.39,2.92-60.61,3.85-38.86,1.79-77.46-.15-116.31-.87-37.6-.7-75.14,2.27-112.74,2.05-17.53-.1-34.93-1.29-52.31-3.58-17.05-2.25-34.04-4.99-51.22-6.06-38.91-2.43-77.47,4.58-116.2,6.93s-77.24.36-115.84-1.09c-75.65-2.84-151.39-2.2-227.08-1.78-74.88.42-149.82.84-224.65-2.51-9.25-.41-18.5-.89-27.75-1.44-4.3-.25-8.61-.44-12.84-1.26-1.39-.27-3.75-.24-3.22-1.74.6-1.68,4.43-1.82,6.09-2.11,19.87-3.52,40.15-4.85,60.3-5.37,39.64-1.02,79.29,1.45,118.93-.13,39.13-1.56,77.91-4.95,117.12-3.49,18.66.7,37.32,1.76,56,1.8s39.06-1.53,58.59-2.94,38.15-1.86,57.31-1.1c18.62.73,37.2,1.98,55.84,2.06,38.43.17,76.79-2.73,115.17-4.19,75.16-2.87,149.77,5.3,224.83,6.85,39.5.81,78.61-1.67,117.95-4.93,38.23-3.17,76.52-4.78,114.79-1.31,15.72,1.42,31.37,3.67,46.73,7.33,1.56.37,2.23-2.04.66-2.41h0Z"></path></g></g></svg>