<svg xmlns="http://www.w3.org/2000/svg" id="Layer_2" viewBox="0 0 1386.83 40.55"><defs><style>      .cls-1 {        fill: #231f20;      }      .cls-2 {        fill: #fff;      }    </style></defs><g id="Layer_1-2" data-name="Layer_1"><g><path class="cls-2" d="M16.45,10.37C55.06,2.18,108.7-.72,165.17,2.35c34.16,1.86,68.88,5.79,103.13,7.87,111.76,6.77,205.57-6.69,314.76-4.29,60.85,1.34,125.55,7.6,184.23,6.78,29.6-.42,57.24-2.64,88.2-1.61,25.64.85,52.27,3.91,78.09,5.05,45.2,2.01,84.95-1.93,129.36-1.06,34.86.68,71.49,4.29,106.8,5.58,68.97,2.51,136.17-3.54,204.25,7.38,3.45.55,7.06,1.2,9.38,2.16,7.43,3.06-4.26,5.33-14.45,5.81-180.15,8.6-385.51-3.16-571.42,1.35-47.73,1.16-95.4,3.37-146.86-.32-37.8-2.71-76.81-8.55-113.07-8.76-41.45-.24-71.7,6.91-110.11,9.03-46,2.53-100.33-2.27-150.08-2.67-34.01-.28-65.76,1.5-99.65,1.35-46-.21-94.67-3.96-142.73-7.69-9.73-.75-20.79-1.77-27.44-4.35-3.64-1.41-5.24-3.06-5.86-4.59-2.46-6.04,5.67-6.88,14.75-9.01"></path><path class="cls-1" d="M16.78,11.58C57.8,3.01,100.37,1.59,142.14,2.68c47.59,1.24,94.85,7.53,142.39,9.65,88.65,3.94,177.07-5.05,265.68-5.42,45.94-.19,91.74,2.81,137.59,5.08,22.32,1.1,44.65,2,67,2.05,22.13.04,44.22-1.18,66.33-1.72,46.06-1.12,91.67,5.52,137.69,5.67,45.37.15,90.51-2.87,135.88-.37,47.18,2.6,93.99,5.17,141.27,4.93,46.71-.24,94.66-1.46,140.78,7.25.99.19,6.56.67,5.67,3.09-.23.63-4.57,1.01-5.21,1.11-5.92.92-11.99.97-17.96,1.23-10.58.46-21.17.85-31.76,1.18-21.59.67-43.19,1.09-64.79,1.34-44.83.51-89.66.26-134.48-.23-90.11-.98-180.23-3.01-270.35-2.32-44.15.34-88.26,2.17-132.4,2.59-46.54.45-92.28-3.68-138.56-7.91-22.46-2.06-44.99-3.47-67.55-2.46-20.77.93-41.36,3.79-62,6.08-42.61,4.73-85.16,3.1-127.89,1.41-46.12-1.83-91.98-.58-138.1-.17s-94.34-2.89-141.39-6.5c-10.9-.84-21.99-1.24-32.78-3.11-3.67-.63-11.09-1.47-13.33-4.76C-.68,13.71,13.43,12.34,16.78,11.58c1.57-.36.9-2.77-.66-2.41-4.19.95-14.11,1.49-15.82,6.74s3.91,8.17,7.74,9.55c8.46,3.05,18.09,3.41,26.96,4.11,12.26.97,24.52,1.9,36.79,2.79,48.8,3.55,97.46,5.52,146.4,4.39,47.47-1.09,94.58.21,142.02,1.82,22.4.76,44.87,1.25,67.26,0,21.14-1.17,42.08-4.2,63.12-6.42,47.17-4.98,93.21.13,140.2,4.49,47.16,4.37,94.3,3.94,141.59,2.64,93.06-2.55,186.1-1.58,279.18-.28,92.79,1.3,185.64,2.77,278.41-.2,11.38-.36,22.76-.8,34.14-1.32,5.42-.25,17.25.73,21.63-3.38,2.43-2.28.5-3.98-2.01-5.12-8.62-3.92-20.53-3.89-29.85-4.96-48.53-5.59-97.43-3.78-146.17-3.94-49.25-.16-98.2-5.54-147.41-6.3-46.6-.72-93.09,3.37-139.67.39-23.97-1.53-47.87-4.06-71.9-4.52s-47.37.95-71.05,1.57c-47.1,1.24-94.16-2.06-141.17-4.46-47.08-2.4-94.04-2.87-141.16-1.22s-90.96,4.37-136.49,5.13c-48.49.81-96.57-1.85-144.86-5.97C166.34.66,118.64-1.89,70.87,1.75c-18.38,1.4-36.71,3.65-54.76,7.42-1.57.33-.91,2.74.66,2.41h0Z"></path></g></g></svg>